# xmcd
# Track frame offsets:
# 150
# 14090
# 27387
# 39942
# 52287
# 64770
# 76340
# 86062
# 103617
# 115750
# 134830
# 144517
# 158995
# 173115
# 186080
# 200450
# 208732
# 221677
# 230837
# 242037
# 251335
#
# Disc length: 3550 seconds
# Revision: 0
# Processed by: cddbd v1.5.2PL0 Copyright (c) Steve Scherf et al.
# Submitted via: VisiTrax 2.9.5.181 - For more info visit www.synapsa.com
#
DISCID=3a0ddc15
DTITLE=Bobbie Gentry - Ode To Billy Joe and Bobbie Gentry and Glenn Campbell
DYEAR=1967
DGENRE=Pop
TTITLE0=Mississippi Delta
TTITLE1=I Saw An Angel Die
TTITLE2=Chickasaw County Child
TTITLE3=Sunday Best
TTITLE4=Niki Hoeky
TTITLE5=Papa, Won't You Let Me Go To Town With You
TTITLE6=Bugs
TTITLE7=Hurry, Tuesday Child
TTITLE8=Lazy Willie
TTITLE9=Ode to Billy Joe
TTITLE10=Less of Me
TTITLE11=Little Green Apples
TTITLE12=Gentle on My Mind
TTITLE13=Heart to Heart Talk
TTITLE14=My Elusive Dreams
TTITLE15=(It's Only Your) Imagination
TTITLE16=Morning Glory
TTITLE17=Terrible Tangled Web
TTITLE18=Sunday Mornin'
TTITLE19=Let It Be Me
TTITLE20=Scarborough Fair/Canticle
EXTD=2on1.  The Title says "The Hits Albums" but the 2 original Albums arr
EXTD=e "Ode To Billy Joe" c.67 and "Bobbie Gentry and Glenn Campbell" c.68 DISK
EXTD=Y HA 860502 c.1995 made in the Netherlands.
EXTT0=
EXTT1=
EXTT2=
EXTT3=
EXTT4=
EXTT5=
EXTT6=
EXTT7=
EXTT8=
EXTT9=
EXTT10=
EXTT11=
EXTT12=
EXTT13=
EXTT14=
EXTT15=
EXTT16=
EXTT17=
EXTT18=
EXTT19=
EXTT20=
PLAYORDER=
